<?xml version="1.0" encoding="UTF-8"?>
<svg xmlns="http://www.w3.org/2000/svg" viewBox="0 0 37.02 37.03">
  <defs>
    <style>
      .cls-1 {
        fill: #fff;
      }

      .cls-2 {
        fill: #ccc;
        mix-blend-mode: multiply;
      }

      .cls-3 {
        isolation: isolate;
      }
    </style>
  </defs>
  <g class="cls-3">
    <g id="Layer_2" data-name="Layer 2">
      <g id="Layer_1-2" data-name="Layer 1">
        <g>
          <path class="cls-2" d="M14.08,10.58c-.23,.07-.47,.14-.69,.24-.13,.06-.24,.13-.36,.19-.19,.11-.38,.22-.56,.35-.11,.08-.22,.17-.33,.27-.16,.14-.32,.29-.46,.45-.05,.06-.12,.11-.18,.17-.05,.06-.08,.12-.12,.18-.08,.11-.16,.22-.23,.34-.05,.08-.11,.15-.15,.23-.05,.09-.09,.2-.14,.3-.04,.08-.08,.16-.12,.25-.02,.05-.05,.09-.07,.14-.08,.22-.15,.45-.21,.69,0,0,0,.01,0,.02,0,.02,0,.05-.01,.07-.04,.21-.08,.43-.1,.66,0,.1-.01,.21-.01,.31,0,.19,0,.38,.02,.57,.01,.12,.04,.23,.06,.35,.01,.07,.02,.15,.04,.22,.06,.28,.13,.55,.23,.8,0,.02,.02,.04,.03,.06,.02,.05,.04,.09,.06,.14,.1,.24,.22,.46,.36,.67,.04,.06,.08,.12,.12,.18,.03,.04,.05,.09,.08,.13,.15,.2,.31,.39,.49,.57,0,0,0,0,0,0l4.25,4.27c-.22,.02-.44,.04-.66,.04-1.37,0-2.65-.34-3.77-.95-.67-.36-1.28-.82-1.81-1.36h0s0,0,0,0l6.02,6.05c1.42,1.43,3.39,2.31,5.58,2.31,.3,0,.59-.02,.87-.05,.09-.01,.18-.03,.28-.04,.19-.03,.38-.06,.57-.1,.11-.02,.21-.05,.32-.08,.17-.04,.34-.09,.5-.15,.11-.04,.21-.08,.32-.12,.16-.06,.31-.12,.46-.19,.1-.05,.21-.1,.31-.15,.15-.08,.3-.16,.44-.25,.09-.06,.19-.11,.28-.17,.15-.1,.3-.2,.44-.31,.08-.06,.15-.11,.23-.17,.18-.15,.36-.3,.53-.47,.03-.03,.06-.05,.09-.08,.19-.19,.38-.4,.55-.61,0-.01,.02-.02,.03-.03,.02-.02,.03-.04,.04-.06,.26-.33,.51-.68,.72-1.05,0-.01,.02-.03,.03-.04,0,0,0-.01,0-.02,.17-.3,.31-.61,.44-.93,.01-.04,.04-.07,.05-.11,.02-.04,.03-.09,.04-.14,.09-.26,.17-.53,.24-.8,.01-.04,.03-.08,.04-.13,0-.01,0-.03,0-.04,.07-.33,.12-.67,.15-1.01,0-.03,.01-.06,.01-.1,.01-.18,.02-.37,.02-.56,0-.27,0-.54-.03-.81,0,0,0,0,0,0-.03-.33-.09-.66-.16-.98-.02-.09-.04-.18-.07-.27-.06-.25-.14-.49-.23-.72-.02-.05-.03-.1-.05-.16,0-.02-.02-.05-.03-.07-.12-.29-.25-.57-.4-.85-.03-.05-.06-.1-.09-.15-.13-.22-.27-.44-.41-.65-.03-.04-.05-.08-.07-.12-.03-.03-.06-.06-.08-.1-.21-.27-.43-.53-.67-.78,0,0,0,0,0,0l-6.02-6.05c.24,.24,.46,.51,.67,.78,.05,.07,.11,.14,.16,.21,.15,.21,.29,.42,.42,.65,.03,.05,.06,.1,.09,.15,.15,.27,.28,.56,.4,.85,.03,.07,.05,.15,.08,.22,.09,.24,.16,.48,.23,.72,.02,.09,.05,.18,.07,.27,.07,.32,.13,.64,.16,.98,.02,.27,.04,.54,.03,.81,0,.21-.02,.41-.04,.62l-4.26-4.28c-.91-.91-2.17-1.48-3.57-1.49-.02,0-.03,0-.05,0-.38,0-.75,.05-1.11,.13-.12,.03-.23,.07-.34,.1Zm3.33,7.91c.09-.12,.2-.24,.3-.35,.14-.16,.3-.31,.46-.45,.11-.09,.22-.18,.33-.27,.18-.13,.37-.24,.56-.35,.12-.07,.24-.14,.36-.19,.22-.1,.45-.17,.69-.24,.11-.03,.22-.08,.34-.1,.36-.08,.73-.13,1.11-.13,.02,0,.03,0,.05,0,.61,0,1.18,.13,1.71,.33-.02,.14-.03,.29-.07,.44-.01,.06-.03,.11-.04,.17-.07,.27-.15,.54-.24,.8-.03,.08-.06,.17-.09,.25-.13,.32-.27,.64-.44,.94-.01,.02-.02,.04-.04,.06-.21,.37-.45,.72-.72,1.05-.02,.03-.04,.06-.07,.09-.17,.21-.36,.42-.55,.61-.03,.03-.06,.05-.08,.08-.17,.16-.35,.32-.53,.47-.07,.06-.15,.11-.23,.17-.15,.11-.29,.22-.44,.32-.09,.06-.18,.11-.28,.17-.15,.09-.29,.17-.44,.25-.1,.05-.2,.1-.3,.15-.15,.07-.31,.13-.46,.2-.11,.04-.21,.08-.32,.12-.16,.05-.33,.1-.5,.15-.11,.03-.21,.06-.32,.08-.15,.03-.3,.05-.45,.08-.08-.23-.16-.46-.21-.71-.01-.07-.02-.15-.04-.22-.05-.3-.08-.6-.08-.91,0-.33,.05-.66,.11-.97,0-.02,0-.05,.01-.07,.07-.29,.16-.57,.28-.85,.04-.08,.08-.17,.12-.25,.09-.18,.19-.35,.29-.52,.07-.12,.15-.23,.23-.34Z"/>
          <path class="cls-2" d="M8.51,34.4c1.01,1.01,2.34,1.74,3.98,2.16,1.24,.32,4.92,.46,8.61,.46s7.21-.13,8.55-.35c.51-.08,.98-.2,1.44-.34,.14-.04,.28-.1,.41-.15,.31-.11,.6-.24,.88-.38,.14-.07,.28-.15,.42-.23,.26-.15,.51-.32,.75-.51,.12-.09,.23-.17,.34-.26,.29-.25,.55-.52,.8-.81,.03-.04,.08-.07,.11-.11,0,0,0-.02,.01-.02,.27-.33,.51-.69,.73-1.07,0-.02,.02-.03,.03-.05,.06-.11,.11-.25,.17-.36,.12-.25,.25-.5,.36-.77,.01-.04,.03-.07,.05-.1,.12-.33,.24-.67,.33-1.03,.02-.07,.03-.14,.05-.21,.02-.11,.04-.23,.07-.35,0-.02,0-.04,.01-.06,.03-.21,.06-.44,.09-.69,0-.06,.01-.13,.02-.19,.03-.24,.05-.49,.07-.76,0-.03,0-.06,0-.09,0,0,0-.02,0-.03,.02-.3,.04-.62,.06-.95,0-.1,.01-.21,.02-.32,.01-.25,.02-.5,.04-.76,0-.13,.01-.27,.02-.4,0-.25,.02-.51,.02-.76,0-.13,0-.27,.01-.4,0-.31,.01-.62,.02-.94,0-.08,0-.16,0-.24,0-.4,.01-.8,.01-1.21,0-.11,0-.22,0-.33,0-.3,0-.59,0-.89,0-.14,0-.28,0-.42,0-.27,0-.54,0-.8,0-.13,0-.26,0-.39,0-.3,0-.6-.01-.89,0-.08,0-.16,0-.24,0-.37-.01-.72-.02-1.06,0-.07,0-.13,0-.2,0-.27-.01-.52-.02-.77,0-.1,0-.19,0-.28,0-.2-.01-.4-.02-.58,0-.09,0-.17-.01-.26,0-.19-.02-.36-.03-.52,0-.05,0-.11,0-.16-.01-.19-.02-.36-.04-.5,0-.01,0-.02,0-.03-.04-.46-.12-.91-.23-1.34-.03-.14-.08-.27-.12-.41-.06-.22-.12-.45-.2-.66-.03-.07-.07-.14-.1-.22-.05-.12-.11-.23-.16-.35-.14-.29-.29-.56-.46-.83-.06-.1-.12-.2-.19-.3-.03-.05-.06-.1-.1-.15-.23-.31-.48-.6-.76-.88l-6.02-6.05c.32,.33,.6,.67,.86,1.03,.07,.1,.13,.2,.19,.3,.17,.27,.33,.55,.47,.84,.05,.12,.11,.23,.16,.35,.12,.28,.21,.58,.3,.88,.04,.14,.09,.27,.12,.41,.1,.44,.18,.88,.23,1.34,.01,.14,.03,.32,.04,.53,0,.06,0,.13,.01,.19,0,.15,.02,.31,.03,.49,0,0,0,.01,0,.02l-4.38-4.4c-.78-.78-1.83-1.3-3.13-1.5-1.33-.2-4.55-.29-7.75-.29s-6.16,.08-7.51,.23c-.37,.04-.73,.12-1.06,.21-.11,.03-.21,.07-.31,.11-.22,.08-.44,.16-.65,.25-.11,.05-.22,.11-.32,.17-.18,.1-.36,.22-.52,.34-.1,.07-.19,.14-.29,.22-.16,.14-.31,.29-.45,.45-.05,.06-.12,.1-.17,.17-.02,.03-.04,.06-.06,.09-.09,.11-.16,.24-.24,.36-.06,.1-.13,.18-.19,.28-.02,.03-.03,.07-.05,.11-.05,.1-.1,.21-.14,.31-.05,.11-.11,.21-.15,.32-.02,.06-.03,.12-.05,.17-.04,.12-.08,.25-.11,.38-.03,.1-.06,.19-.09,.29-.03,.14-.06,.29-.08,.44-.03,.17-.05,.38-.08,.6,0,.08-.01,.17-.02,.25-.01,.14-.03,.28-.04,.44,0,.02,0,.04,0,.07,0,.08-.01,.16-.02,.24-.01,.19-.03,.39-.04,.6,0,.1-.01,.21-.02,.32-.01,.2-.02,.41-.03,.63,0,.12,0,.24-.01,.36,0,.23-.02,.47-.02,.71,0,.11,0,.22-.01,.33,0,.35-.02,.71-.03,1.07,0,.06,0,.13,0,.2,0,.3-.01,.61-.01,.92,0,.14,0,.27,0,.41,0,.24,0,.48,0,.72,0,.15,0,.3,0,.45,0,.25,0,.49,0,.73,0,.13,0,.26,0,.39,0,.32,0,.63,0,.94,0,.05,0,.1,0,.15,0,.36,0,.71,.02,1.05,0,.09,0,.18,0,.27,0,.24,.01,.48,.02,.71,0,.11,0,.21,0,.32,0,.2,.01,.4,.02,.59,0,.1,0,.2,.01,.29,0,.2,.02,.38,.03,.56,0,.07,0,.14,.01,.2,.01,.22,.03,.43,.04,.6,0,0,0,0,0,.01,.02,.2,.04,.38,.06,.52,.07,.43,.18,.82,.31,1.19,.02,.05,.02,.1,.04,.15,.01,.04,.04,.07,.06,.1,.15,.37,.34,.72,.56,1.04,.01,.01,.01,.03,.03,.05,.13,.18,.28,.35,.44,.51l4.42,4.43c-1.09-.07-1.96-.17-2.45-.29-.41-.11-.8-.23-1.17-.37-1.11-.43-2.05-1.03-2.81-1.79h0s0,0,0,0l6.02,6.05ZM30.9,9.58c0,.08,0,.15,0,.22,0,.1,0,.21,.01,.31,0,.23,.01,.46,.02,.71,0,.09,0,.17,0,.26,0,.22,0,.46,.01,.69l-2.73-2.74c.47,.03,.87,.07,1.17,.12,.55,.09,1.04,.24,1.51,.44Zm-6.26-.7s-.06,.04-.09,.06c-.03,.01-.06,.02-.09,.03-.21,.08-.43,.13-.67,.13-.32,0-.6-.11-.86-.25,.58,0,1.15,.01,1.71,.02Zm-3-.03c.38,0,.76,0,1.14,0l5.73,5.75c.33,.33,.79,.54,1.3,.55,.24,0,.46-.05,.67-.13,.03-.01,.06-.02,.09-.03,.15-.06,.29-.14,.41-.24,0,.04,0,.08,0,.12,0,.28,0,.56,0,.85,0,.13,0,.25,0,.38,0,.4,0,.8-.01,1.19,0,.08,0,.16,0,.23,0,.32-.01,.64-.02,.96,0,.13,0,.26-.01,.39,0,.26-.02,.52-.03,.78,0,.13,0,.26-.01,.39-.01,.26-.02,.52-.04,.77,0,.1-.01,.21-.02,.31-.02,.34-.04,.67-.06,.98,0,.03,0,.06,0,.09-.02,.27-.05,.52-.07,.76,0,.07-.01,.13-.02,.19-.03,.25-.06,.49-.09,.69,0,.02,0,.04-.01,.06-.04,.21-.07,.41-.12,.56-.11,.4-.24,.77-.38,1.13-.11,.27-.23,.52-.35,.76-.07,.14-.13,.29-.2,.42-.22,.38-.46,.74-.73,1.07-.04,.05-.09,.09-.13,.13-.25,.29-.51,.56-.8,.81-.11,.09-.23,.18-.34,.26-.24,.18-.49,.35-.75,.51-.14,.08-.28,.16-.42,.23-.28,.14-.58,.27-.88,.38-.14,.05-.27,.11-.41,.15-.46,.14-.93,.26-1.44,.34-1.34,.22-4.94,.35-8.55,.35-1.99,0-3.97-.04-5.57-.13,0,0,0,0,0-.01-.03-.08-.07-.17-.1-.25-.13-.37-.25-.77-.31-1.19-.02-.14-.04-.31-.06-.52-.02-.18-.03-.39-.05-.62,0-.06,0-.14-.01-.2,0-.17-.02-.35-.03-.55,0-.1,0-.2-.01-.3,0-.18-.01-.38-.02-.58,0-.11,0-.22-.01-.33,0-.22-.01-.44-.02-.67,0-.11,0-.21,0-.32,0-.33-.01-.67-.02-1.02,0-.07,0-.15,0-.23,0-.29,0-.58,0-.88,0-.13,0-.25,0-.38,0-.25,0-.5,0-.76,0-.13,0-.27,0-.4,0-.26,0-.52,0-.78,0-.12,0-.24,0-.36,0-.32,0-.63,.01-.95,0-.06,0-.12,0-.18,0-.37,.02-.73,.03-1.08,0-.1,0-.19,0-.28,0-.26,.02-.51,.03-.75,0-.11,0-.22,.01-.33,0-.22,.02-.43,.03-.64,0-.11,.01-.21,.02-.32,.01-.22,.03-.42,.04-.62,0-.07,0-.15,.01-.22,.01-.19,.03-.35,.04-.52,0-.08,.01-.17,.02-.24,.02-.23,.05-.43,.08-.6,.04-.25,.11-.49,.17-.72,.04-.13,.07-.26,.11-.38,.06-.17,.13-.33,.2-.49,.05-.1,.09-.21,.14-.31,.07-.14,.16-.26,.24-.39,.08-.12,.16-.25,.24-.36,.07-.09,.15-.17,.23-.25,.14-.16,.29-.31,.45-.45,.09-.08,.19-.15,.29-.22,.17-.12,.34-.23,.52-.34,.11-.06,.21-.12,.32-.17,.21-.1,.42-.18,.65-.25,.1-.04,.2-.08,.31-.11,.34-.09,.69-.17,1.06-.21,1.35-.15,4.42-.23,7.51-.23Z"/>
          <path class="cls-1" d="M23.82,5.39s.02,0,.02,0c1.02,0,1.85,.83,1.84,1.87,0,1.02-.85,1.85-1.88,1.85-1.03-.01-1.85-.85-1.84-1.87,0-1.03,.84-1.85,1.86-1.85Z"/>
          <path class="cls-1" d="M30.8,7.78c.23,2.44,.38,13.96-.34,16.66-.96,3.53-3.27,5.62-6.84,6.2-1.34,.22-4.94,.35-8.55,.35s-7.37-.14-8.61-.46c-3.51-.91-5.61-3.2-6.17-6.76C-.12,21.15-.16,9.01,.59,6.37,1.58,2.94,3.87,.92,7.34,.35c1.57-.26,4.65-.35,7.76-.35,2.89,0,5.81,.08,7.57,.17,2.13,.11,4.07,.8,5.66,2.31,1.51,1.44,2.28,3.25,2.47,5.29Zm-2.98,15.48c.44-2.72,.44-12.67,.19-15.22-.28-2.72-1.94-4.52-4.64-4.94-1.33-.2-4.55-.29-7.75-.29s-6.16,.08-7.51,.23c-2.7,.31-4.52,1.98-4.95,4.67-.44,2.85-.44,13.5-.11,15.64,.34,2.23,1.6,3.76,3.82,4.38,1.2,.34,4.8,.46,8.33,.46,3.25,0,6.44-.1,7.64-.23,2.73-.3,4.53-1.98,4.96-4.69"/>
          <path class="cls-1" d="M15.56,7.55c4.38,0,7.91,3.56,7.88,7.95-.03,4.38-3.62,7.94-8.01,7.94s-7.91-3.56-7.88-7.95c.03-4.39,3.62-7.95,8.01-7.94Zm-.12,13.08c2.82,0,5.13-2.27,5.18-5.09,.05-2.85-2.21-5.16-5.05-5.19-.02,0-.03,0-.05,0-2.82,0-5.13,2.27-5.18,5.09-.05,2.84,2.21,5.16,5.05,5.19,.02,0,.03,0,.05,0"/>
        </g>
      </g>
    </g>
  </g>
</svg>