<?xml version="1.0" encoding="UTF-8"?>
<svg xmlns="http://www.w3.org/2000/svg" viewBox="0 0 32.72 40.52">
  <defs>
    <style>
      .cls-1 {
        fill: #fff;
      }

      .cls-2 {
        fill: #ccc;
        mix-blend-mode: multiply;
      }

      .cls-3 {
        isolation: isolate;
      }
    </style>
  </defs>
  <g class="cls-3">
    <g id="Layer_2" data-name="Layer 2">
      <g id="Layer_1-2" data-name="Layer 1">
        <g>
          <path class="cls-2" d="M10.02,25.97c.05,.02,.1,.02,.14,.03-.04,.17-.09,.34-.13,.5-.02,.06-.03,.12-.05,.17-.04,.16-.09,.32-.13,.47-.02,.07-.04,.13-.05,.19-.04,.15-.09,.3-.13,.44-.01,.04-.02,.08-.04,.12-.05,.18-.11,.34-.16,.51-.01,.04-.03,.08-.04,.12-.04,.12-.09,.25-.13,.36-.01,.04-.03,.08-.04,.11-.12,.31-.25,.62-.39,.93,0,0,0,0,0,.01-.15,.31-.31,.62-.5,.96-.04,.07-.08,.15-.12,.22-.63,1.09-1.34,2.13-2.11,3.12-.03,.04-.06,.08-.1,.12-.01,.01-.03,.03-.04,.04-.04,.04-.09,.07-.16,.07-.08-.02-.13-.05-.17-.09l6.02,6.05s.09,.07,.17,.09c.06,0,.11-.03,.16-.07,.01-.01,.03-.03,.04-.04,0,0,.02-.01,.02-.02,.03-.03,.05-.06,.07-.09,.78-1,1.48-2.03,2.11-3.12,.03-.06,.07-.12,.1-.18,0-.01,.01-.02,.02-.04,.19-.34,.35-.66,.5-.96,0,0,0,0,0,0,.15-.31,.27-.61,.4-.93,0-.01,.01-.02,.02-.04,0-.03,.02-.05,.03-.08,.04-.12,.09-.24,.13-.36,.01-.04,.03-.08,.04-.13,.05-.16,.11-.33,.16-.5,.01-.04,.03-.09,.04-.13,.04-.14,.09-.29,.13-.44,.02-.06,.04-.13,.05-.19,.04-.15,.08-.3,.12-.45,.02-.07,.04-.13,.05-.2,.06-.21,.12-.44,.18-.68,.02-.08,.04-.16,.06-.24,.05-.2,.1-.4,.16-.62,.06-.22,.12-.46,.18-.7,.04-.14,.07-.29,.11-.43,.09-.33,.18-.68,.27-1.06l.06-.17,.63,.63c1.1,1.1,2.72,1.69,4.5,1.69,2.5,0,5.29-1.16,7.36-3.71,0,0,0,0,0,0,.35-.43,.66-.89,.94-1.36,.04-.07,.09-.15,.14-.22,.03-.05,.07-.11,.1-.16,.22-.4,.41-.8,.59-1.21,.04-.09,.08-.18,.12-.28,.05-.13,.11-.26,.16-.39,.13-.33,.23-.66,.34-.99,0-.03,.02-.06,.03-.09,.11-.38,.21-.75,.3-1.13,.02-.09,.03-.17,.05-.26,.04-.2,.07-.38,.11-.58,.05-.3,.1-.59,.14-.88,.02-.19,.04-.37,.06-.55,.01-.11,.03-.24,.04-.35,.01-.14,0-.25,.01-.38,.01-.24,.02-.46,.03-.68,0-.21,0-.4,0-.59,0-.2-.01-.39-.03-.57,0-.08,0-.18-.01-.25-.01-.16-.03-.31-.05-.45-.07-.51-.2-1.02-.35-1.51-.04-.14-.09-.27-.13-.41-.05-.15-.09-.31-.15-.46-.08-.2-.18-.39-.27-.58-.08-.17-.15-.35-.24-.52-.19-.37-.41-.72-.65-1.07-.07-.11-.13-.22-.21-.32-.01-.02-.03-.04-.04-.06-.32-.44-.68-.86-1.08-1.26l-6.02-6.05c.41,.41,.78,.86,1.12,1.32,.07,.1,.13,.21,.2,.32,.24,.35,.46,.7,.65,1.07,.09,.17,.16,.34,.24,.52,.16,.34,.3,.69,.42,1.04,.05,.13,.09,.27,.13,.41,.15,.5,.27,1,.35,1.51,.03,.2,.05,.45,.06,.7,.01,.18,.02,.37,.03,.57,0,.19,0,.38,0,.59,0,.22-.01,.45-.03,.68-.01,.24-.03,.48-.05,.73-.02,.18-.04,.36-.06,.55-.04,.29-.08,.58-.14,.88-.03,.19-.07,.38-.11,.57-.1,.46-.21,.92-.35,1.39,0,.03-.02,.06-.03,.09-.14,.46-.31,.92-.5,1.38-.04,.09-.08,.18-.12,.27-.2,.47-.43,.93-.69,1.38-.04,.07-.09,.15-.13,.22-.28,.47-.59,.93-.95,1.36-1.49,1.83-3.35,2.93-5.21,3.42,0-.04,0-.07,0-.11,0-.24,.03-.49,.1-.75,.13-.52,.28-1.02,.42-1.49,.06-.19,.11-.37,.17-.55,.1-.34,.21-.69,.31-1.01,.1-.31,.18-.6,.27-.89,.05-.16,.09-.32,.14-.47,.08-.29,.15-.56,.22-.83,.02-.08,.04-.16,.06-.23,0-.01,0-.02,0-.03,.08-.38,.14-.73,.17-1.07,0-.04,.02-.08,.02-.12,0-.08,0-.16,0-.24,0-.14,0-.28,0-.41,0-.05,0-.09,0-.14-.01-.16-.04-.31-.07-.47-.04-.16-.08-.3-.13-.44-.02-.06-.06-.11-.09-.17-.05-.11-.1-.21-.17-.3-.03-.05-.06-.12-.09-.17-.07-.1-.15-.19-.23-.27l-4.09-4.1s0,0,0,0c1.33-.62,2.88-.94,4.43-.94,1.15,0,2.3,.18,3.35,.56,1.06,.38,2.02,.95,2.8,1.74h0s0,0,0,0l-6.02-6.05c-1.56-1.57-3.85-2.29-6.15-2.29-1.54,0-3.09,.33-4.43,.94-.34,.16-.67,.33-.98,.52-.11,.07-.2,.14-.31,.21-.19,.13-.39,.26-.57,.4-.11,.09-.22,.19-.33,.28-.15,.13-.31,.26-.46,.4-.11,.1-.2,.22-.3,.33-.13,.14-.27,.28-.39,.43,0,0-.01,.01-.02,.02-.01,.02-.02,.03-.03,.05-.3,.38-.57,.78-.81,1.19-.03,.04-.06,.08-.09,.13-.02,.03-.03,.06-.04,.09-.2,.37-.38,.75-.53,1.13,0,.02-.02,.05-.03,.07-.02,.06-.03,.12-.05,.18-.11,.31-.2,.62-.28,.93-.01,.06-.04,.12-.05,.18,0,.04,0,.08-.02,.12-.08,.39-.14,.77-.18,1.15,0,.01,0,.03,0,.04,0,.04,0,.07,0,.11-.02,.38-.02,.76,0,1.13,0,.05,0,.1,0,.15,0,.03,.01,.06,.02,.1,.02,.22,.06,.43,.1,.65,.02,.08,.02,.16,.04,.24,.07,.28,.15,.56,.25,.82,0,0,0,.01,0,.02,0,.02,.02,.03,.03,.05,.13,.33,.3,.64,.5,.92,.02,.04,.04,.08,.06,.12,.04,.06,.09,.12,.13,.18,.08,.1,.16,.2,.23,.28,.03,.03,.04,.06,.07,.1,.04,.06,.08,.12,.1,.17,.02,.05,.05,.11,.06,.16,0,.01,0,.03,0,.04,0,.08,0,.17-.02,.26-.15,.62-.31,1.24-.47,1.85-.04,.15-.12,.25-.21,.34-.02,.02-.04,.04-.07,.05-.1,.07-.21,.12-.35,.12-.11,0-.23-.02-.35-.07-.7-.29-1.29-.69-1.81-1.21l6.02,6.05c.51,.52,1.11,.92,1.81,1.21Zm1.94-12.98s.03-.05,.05-.07c.12-.15,.26-.29,.39-.43,.1-.11,.19-.22,.3-.32,.15-.14,.31-.28,.47-.41,.11-.09,.2-.19,.31-.27,.18-.14,.38-.27,.58-.4,.04-.03,.08-.05,.12-.08,0,.04,0,.09,0,.13-.03,.34-.09,.69-.17,1.07-.02,.08-.05,.18-.07,.26-.07,.27-.14,.54-.22,.83-.04,.15-.09,.31-.14,.47-.09,.29-.17,.58-.27,.89-.1,.32-.2,.66-.31,1.01-.06,.18-.11,.36-.17,.55-.14,.48-.28,.97-.42,1.49,0,.04-.02,.07-.03,.11-.04,.17-.06,.33-.08,.49,0,.05,0,.1,0,.16,0,.06,0,.11,0,.17,0,.06,0,.13,0,.19,0,.08,.04,.15,.05,.23,.02,.14,.05,.28,.1,.41,.02,.05,.02,.1,.03,.14,.03,.07,.07,.13,.11,.19,.05,.11,.11,.22,.18,.32,.03,.04,.04,.09,.07,.13,.09,.12,.18,.23,.28,.33l4.23,4.25c-.4,.06-.8,.1-1.18,.1-1.48,0-2.83-.43-3.88-1.2l-1.21-1.21-.06,.18s0,0,0,0c-.07-.09-.13-.2-.2-.3-.19-.29-.36-.59-.5-.92,0-.02-.02-.05-.03-.07-.1-.26-.19-.54-.25-.82-.02-.08-.03-.16-.04-.24-.04-.21-.08-.43-.1-.65,0-.08-.01-.16-.02-.24-.03-.37-.03-.75,0-1.13,0-.05,0-.1,0-.16,.03-.38,.09-.77,.18-1.15,.02-.1,.05-.19,.07-.29,.08-.31,.17-.62,.28-.93,.03-.08,.05-.16,.09-.24,.15-.38,.33-.76,.53-1.13,.04-.07,.09-.15,.13-.22,.24-.41,.5-.81,.8-1.18Z"/>
          <path class="cls-1" d="M14.02,0c.61,0,1.22,.04,1.83,.1,6.18,.7,10.05,4.93,10.75,9.72,.32,2.19,.04,7.56-3.06,11.37-2.07,2.55-4.86,3.71-7.36,3.71-1.8,0-3.44-.6-4.54-1.73-.2-.2-.36-.44-.55-.68l-.09,.26c-1.29,4.96-1.45,6.06-2.76,8.37-.63,1.09-1.34,2.13-2.11,3.12-.08,.1-.16,.23-.3,.23-.24-.06-.25-.22-.27-.38-.2-1.51-.3-3.01-.24-4.54,.08-1.98,.33-2.66,2.96-13.4,.04-.17,0-.31-.06-.45-.6-1.65-.7-3.33-.15-5.03,.65-2,2.17-2.99,3.54-2.99,1.15,0,2.18,.69,2.5,2.07,.43,1.87-.77,4.32-1.7,7.94-.56,2.13,1.07,3.82,3.14,3.82,.83,0,1.73-.27,2.6-.89,2.79-2,3.9-6.83,3.72-10.24-.26-4.89-4.18-7.03-8.13-7.03-1.54,0-3.09,.33-4.43,.94C3.87,6.81,2.57,13.53,5,16.62c.31,.39,.56,.62,.44,1.02-.15,.62-.31,1.24-.47,1.85-.09,.33-.33,.51-.62,.51-.11,0-.23-.02-.35-.07-.91-.37-1.65-.95-2.25-1.7C-.33,15.64-.88,10.54,1.91,6.23,4.63,2.01,9.39,0,14.02,0Z"/>
        </g>
      </g>
    </g>
  </g>
</svg>