<?xml version="1.0" encoding="UTF-8"?>
<svg xmlns="http://www.w3.org/2000/svg" viewBox="0 0 38.53 32.39">
  <defs>
    <style>
      .cls-1 {
        fill: #fff;
      }

      .cls-2 {
        fill: #ccc;
        mix-blend-mode: multiply;
      }

      .cls-3 {
        isolation: isolate;
      }
    </style>
  </defs>
  <g class="cls-3">
    <g id="Layer_2" data-name="Layer 2">
      <g id="Layer_1-2" data-name="Layer 1">
        <g>
          <path class="cls-2" d="M9.69,8.67c-.44-.44-.86-.9-1.27-1.39L2.4,1.24c.41,.49,.83,.95,1.27,1.39l6.02,6.05Z"/>
          <path class="cls-2" d="M3.4,9.28l6.02,6.05c.29,.29,.6,.55,.95,.8l-6.02-6.05c-.34-.25-.66-.52-.95-.8Z"/>
          <path class="cls-2" d="M3.34,14.09l6.02,6.05c.88,.88,1.98,1.47,3.3,1.77l-6.02-6.05c-1.32-.31-2.42-.89-3.3-1.77Z"/>
          <path class="cls-2" d="M37.15,7.73c.05-.09,.08-.18,.13-.27,.08-.17,.17-.33,.23-.5,.05-.12,.09-.25,.13-.38L31.62,.53c-.1,.31-.23,.6-.36,.88-.04,.09-.08,.19-.13,.27-.11,.21-.25,.4-.38,.59-.08,.12-.15,.24-.24,.35-.16,.2-.34,.37-.52,.55-.09,.09-.17,.19-.26,.27-.29,.25-.6,.49-.93,.71l1.51,1.52c-.32,.28-.63,.56-.98,.81l-.11,.21c.02,.59,0,1.18-.04,1.77-.03,.39-.05,.78-.11,1.17-.07,.56-.17,1.12-.3,1.67-.08,.34-.17,.68-.26,1.02-.04,.13-.06,.26-.1,.39-.14,.47-.3,.93-.47,1.39-.19,.49-.39,.98-.62,1.46-.21,.44-.44,.86-.68,1.28-.17,.29-.35,.57-.53,.85-.12,.18-.23,.37-.35,.55-.21,.31-.44,.61-.68,.91-.11,.14-.2,.28-.31,.41-.35,.42-.71,.84-1.1,1.23-2.44,2.5-5.34,4.15-8.69,4.98l-5.14-5.16c-1.95-.06-3.48-.89-4.55-1.96l6.02,6.05c.55,.55,1.23,1.03,2.03,1.39-.85,.13-1.7,.22-2.56,.25-.2,0-.4,0-.6,0-3.6,0-6.94-.96-10.02-2.87l-.16-.1,6.02,6.05,.16,.1c3.07,1.91,6.41,2.87,10.02,2.87,.2,0,.4,0,.6,0,1.26-.04,2.49-.17,3.71-.44,3.56-.78,6.63-2.48,9.18-5.1,.39-.4,.75-.81,1.1-1.23,0-.01,.02-.02,.03-.03,.1-.12,.19-.26,.28-.38,.23-.3,.46-.6,.68-.91,.12-.18,.23-.37,.35-.55,.18-.28,.36-.56,.53-.85,.02-.04,.05-.08,.08-.12,.21-.38,.41-.76,.6-1.15,.23-.48,.43-.97,.62-1.46,0,0,0-.02,.01-.03,.17-.45,.32-.9,.46-1.36,.04-.13,.07-.26,.1-.39,.08-.3,.17-.6,.24-.9,0-.04,.01-.08,.02-.12,.12-.55,.22-1.11,.3-1.67,.04-.32,.08-.64,.1-.97,0-.07,0-.14,0-.21,.04-.59,.06-1.18,.04-1.77l.11-.21c.45-.33,.88-.68,1.29-1.06,.13-.12,.24-.27,.37-.4,.25-.26,.52-.52,.75-.8,0-.01,.02-.02,.03-.03,.04-.05,.08-.09,.12-.14,.23-.28,.43-.57,.64-.88l-1.41-1.41s.02-.04,.03-.06Z"/>
          <path class="cls-1" d="M32.5,3.15c-.24,.36-.48,.7-.75,1.02-.7,.87-1.52,1.64-2.43,2.3l-.11,.21c.03,.98-.01,1.97-.15,2.95-.26,2.07-.86,4.04-1.75,5.92-.94,1.94-2.13,3.7-3.64,5.24-2.56,2.63-5.62,4.32-9.18,5.1-1.22,.26-2.45,.4-3.71,.44-.2,0-.4,0-.6,0-3.6,0-6.94-.96-10.02-2.87l-.16-.1c.53,.06,1.05,.08,1.56,.08,1.76,0,3.45-.33,5.1-.99,1.14-.47,2.19-1.07,3.17-1.85-3.45-.11-5.59-2.6-6.15-4.62,.41,.08,.82,.12,1.24,.12,.54,0,1.08-.07,1.61-.19l.1-.05c-1.88-.44-3.31-1.43-4.29-3.05-.66-1.07-.97-2.25-.96-3.53,.94,.5,1.91,.77,2.96,.8-1.4-1.01-2.33-2.34-2.71-4.03-.37-1.69-.11-3.3,.76-4.82,3.56,4.24,8.1,6.57,13.66,6.96-.04-.27-.07-.5-.11-.73-.17-1.57,.16-3.02,1.02-4.34,1.07-1.67,2.58-2.7,4.53-3.01,.41-.07,.82-.1,1.21-.1,1.74,0,3.28,.67,4.6,1.96,.08,.07,.15,.11,.24,.11,.03,0,.07,0,.1-.01,1.37-.29,2.67-.78,3.88-1.48l.09-.05c-.48,1.54-1.45,2.74-2.83,3.62,1.3-.14,2.52-.49,3.72-1Z"/>
        </g>
      </g>
    </g>
  </g>
</svg>